HIERARCHY
ROOT Hips
{
	OFFSET 48.726002 -9.941415 92.324898
	CHANNELS 6 Xposition Yposition Zposition Xrotation Yrotation Zrotation
	JOINT spine
	{
		OFFSET 0.000000 -0.429886 7.475601
		CHANNELS 3 Xrotation Yrotation Zrotation
		JOINT spine1
		{
			OFFSET 0.000000 -0.000002 9.923012
			CHANNELS 3 Xrotation Yrotation Zrotation
			JOINT spine2
			{
				OFFSET 0.000000 -0.000001 9.508041
				CHANNELS 3 Xrotation Yrotation Zrotation
				JOINT Neck
				{
					OFFSET 0.000000 -1.163845 24.411102
					CHANNELS 3 Xrotation Yrotation Zrotation
					JOINT Head
					{
						OFFSET 0.000000 -0.000001 7.375229
						CHANNELS 3 Xrotation Yrotation Zrotation
						End Site
						{
							OFFSET 0.000000 5.887407 17.852203
						}
					}
				}
				JOINT RightShoulder
				{
					OFFSET -4.003559 0.557467 10.267899
					CHANNELS 3 Xrotation Yrotation Zrotation
					JOINT RightArm
					{
						OFFSET 0.000000 -0.000002 13.467300
						CHANNELS 3 Xrotation Yrotation Zrotation
						JOINT RightArmRoll
						{
							OFFSET 0.000000 -0.000002 6.798584
							CHANNELS 3 Xrotation Yrotation Zrotation
							JOINT RightForeArm
							{
								OFFSET 0.000000 -0.000003 19.801804
								CHANNELS 3 Xrotation Yrotation Zrotation
								JOINT RightForeArmRoll
								{
									OFFSET 0.000000 -0.000001 7.629059
									CHANNELS 3 Xrotation Yrotation Zrotation
									JOINT RightHand
									{
										OFFSET 0.000000 -0.000003 15.309799
										CHANNELS 3 Xrotation Yrotation Zrotation
										End Site
										{
											OFFSET 0.000000 0.000000 0.100006
										}
									}
								}
							}
						}
					}
				}
				JOINT LeftShoulder
				{
					OFFSET 4.003559 0.557467 10.267899
					CHANNELS 3 Xrotation Yrotation Zrotation
					JOINT LeftArm
					{
						OFFSET 0.000000 -0.000002 13.467300
						CHANNELS 3 Xrotation Yrotation Zrotation
						JOINT LeftArmRoll
						{
							OFFSET 0.000000 -0.000002 6.798584
							CHANNELS 3 Xrotation Yrotation Zrotation
							JOINT LeftForeArm
							{
								OFFSET 0.000000 -0.000003 19.801804
								CHANNELS 3 Xrotation Yrotation Zrotation
								JOINT LeftForeArmRoll
								{
									OFFSET 0.000000 -0.000001 7.629044
									CHANNELS 3 Xrotation Yrotation Zrotation
									JOINT LeftHand
									{
										OFFSET 0.000000 -0.000003 15.309799
										CHANNELS 3 Xrotation Yrotation Zrotation
										End Site
										{
											OFFSET 0.000000 0.000000 0.100006
										}
									}
								}
							}
						}
					}
				}
			}
		}
	}
	JOINT RightUpLeg
	{
		OFFSET -6.626091 1.019270 -1.215050
		CHANNELS 3 Xrotation Yrotation Zrotation
		JOINT RightUpLegRoll
		{
			OFFSET 0.000000 -0.000003 17.951698
			CHANNELS 3 Xrotation Yrotation Zrotation
			JOINT RightLeg
			{
				OFFSET 0.000000 0.000004 -22.230400
				CHANNELS 3 Xrotation Yrotation Zrotation
				JOINT RightLegRoll
				{
					OFFSET 0.000000 -0.000004 22.303200
					CHANNELS 3 Xrotation Yrotation Zrotation
					JOINT RightFoot
					{
						OFFSET 0.000000 -0.000003 18.563599
						CHANNELS 3 Xrotation Yrotation Zrotation
						JOINT RightToeBase
						{
							OFFSET 0.000000 -0.000002 15.518303
							CHANNELS 3 Xrotation Yrotation Zrotation
							End Site
							{
								OFFSET 0.006577 0.866261 7.515396
							}
						}
					}
				}
			}
		}
	}
	JOINT LeftUpLeg
	{
		OFFSET 6.626091 1.019270 -1.215050
		CHANNELS 3 Xrotation Yrotation Zrotation
		JOINT LeftUpLegRoll
		{
			OFFSET 0.000000 -0.000003 17.951797
			CHANNELS 3 Xrotation Yrotation Zrotation
			JOINT LeftLeg
			{
				OFFSET 0.000000 -0.000003 22.230301
				CHANNELS 3 Xrotation Yrotation Zrotation
				JOINT LeftLegRoll
				{
					OFFSET 0.000000 -0.000004 22.509293
					CHANNELS 3 Xrotation Yrotation Zrotation
					JOINT LeftFoot
					{
						OFFSET 0.000000 -0.000003 18.357498
						CHANNELS 3 Xrotation Yrotation Zrotation
						JOINT LeftToeBase
						{
							OFFSET 0.000000 -0.000003 15.518295
							CHANNELS 3 Xrotation Yrotation Zrotation
							End Site
							{
								OFFSET -0.029476 0.866262 7.515381
							}
						}
					}
				}
			}
		}
	}
}
MOTION
Frames: 13
Frame Time: 0.041667
49.132702 -9.074066 92.277901 -5.866122 2.808848 5.058220 -1.302052 -0.251787 -0.012624 1.397956 -0.511235 -0.034230 3.043061 -0.511354 -0.028183 9.727832 -18.362255 -3.487287 6.275583 -2.905625 -1.743360 -16.548012 -20.973593 -18.792420 -148.440897 -187.654776 -87.652835 0.000000 -0.000000 -0.000005 40.471210 1.030544 -1.240665 0.000004 -0.000000 -3.005090 -5.000221 -7.998874 0.000146 0.738815 71.161548 0.650458 -57.216266 111.349104 41.202542 0.000003 0.000000 -0.000003 0.046779 6.752688 1.006118 0.000001 0.000000 3.057620 -5.000197 7.999421 -0.000062 -0.052560 173.009006 -3.454333 -179.999991 0.000005 -1.094996 168.375679 -3.658607 -0.817080 0.000001 -0.000004 0.156902 71.181172 6.772617 2.306913 25.456969 -7.355617 -0.000001 -7.650900 169.228455 -3.449207 -0.000004 -0.000004 -1.193800 -26.877368 2.603229 1.348589 0.000000 0.000001 -0.611781 71.737552 -6.741094 -2.346539 27.662319 7.237299 -3.223045 
49.135792 -9.077964 92.278801 -5.886290 2.799704 5.045247 -1.296883 -0.251089 -0.008717 1.408446 -0.510771 -0.027204 3.053553 -0.510837 -0.021171 9.720230 -18.284259 -3.482420 6.294443 -2.939780 -1.737130 -16.516642 -21.028192 -18.746083 -148.434026 -187.589411 -87.558340 -0.000000 0.000001 -0.000006 40.117666 1.128475 -1.273032 0.000001 0.000001 -3.005091 -5.000220 -7.998873 0.000146 0.718441 71.169827 0.673841 -57.188791 111.363079 41.169447 0.000003 -0.000000 -0.000005 0.046792 6.744239 1.001894 0.000002 0.000001 3.057501 -5.000199 7.999420 -0.000063 -0.037892 173.015003 -3.450702 -179.999991 0.000005 -1.094998 168.355297 -3.654419 -0.818573 0.000002 -0.000003 0.157085 71.190973 6.772606 2.306616 25.456969 -7.355615 -0.000001 -7.618045 169.237580 -3.453473 -0.000004 -0.000005 -1.194499 -26.875483 2.603952 1.348347 0.000001 0.000001 -0.611895 71.741432 -6.740856 -2.347166 27.663919 7.236927 -3.225601 
49.134495 -9.086372 92.278404 -5.906258 2.790353 5.032757 -1.291831 -0.250383 -0.004848 1.418686 -0.510215 -0.020194 3.063791 -0.510233 -0.014174 9.713782 -18.205905 -3.477590 6.312642 -2.974069 -1.731187 -16.485145 -21.080868 -18.699415 -148.425229 -187.520849 -87.464636 0.000001 -0.000001 -0.000006 39.752476 1.229619 -1.306597 0.000000 0.000000 -3.005090 -5.000220 -7.998873 0.000146 0.698886 71.179505 0.696463 -57.168144 111.377286 41.143721 0.000003 0.000000 -0.000003 0.046809 6.736438 0.997970 0.000001 0.000001 3.057391 -5.000199 7.999419 -0.000063 -0.022711 173.022011 -3.447180 -179.999991 0.000005 -1.095994 168.336118 -3.649271 -0.819782 0.000001 -0.000003 0.157266 71.200037 6.772595 2.306364 25.456965 -7.355613 -0.000001 -7.585750 169.246705 -3.457489 -0.000005 -0.000004 -1.195179 -26.873999 2.604788 1.348182 0.000000 0.000001 -0.612007 71.745093 -6.740655 -2.347911 27.665512 7.236567 -3.228198 
49.139194 -9.092784 92.279198 -5.925864 2.780795 5.020830 -1.287021 -0.249670 -0.001050 1.428446 -0.509555 -0.013246 3.073561 -0.509524 -0.007239 9.709944 -18.127216 -3.472487 6.328948 -3.008355 -1.725473 -16.453296 -21.131451 -18.652277 -148.413754 -187.448818 -87.371356 0.000001 0.000001 -0.000005 39.372762 1.334754 -1.341700 -0.000002 0.000001 -3.005089 -5.000225 -7.998871 0.000146 0.680759 71.191164 0.717754 -57.161529 111.390523 41.132796 0.000004 -0.000001 -0.000005 0.046822 6.729588 0.994472 0.000003 0.000000 3.057270 -5.000198 7.999419 -0.000062 -0.006996 173.029005 -3.443759 -179.999991 0.000005 -1.097004 168.318442 -3.644142 -0.820894 0.000001 -0.000003 0.157449 71.208246 6.772620 2.306069 25.456964 -7.355615 -0.000001 -7.554246 169.256841 -3.461307 -0.000004 -0.000004 -1.195828 -26.872720 2.605765 1.348098 0.000000 0.000001 -0.612116 71.748651 -6.740423 -2.348561 27.667209 7.236207 -3.230852 
49.144199 -9.100183 92.281303 -5.944936 2.771041 5.009571 -1.282553 -0.248955 0.002643 1.437527 -0.508769 -0.006403 3.082642 -0.508691 -0.000411 9.710181 -18.048522 -3.466795 6.342097 -3.042530 -1.719942 -16.420944 -21.179578 -18.604220 -148.398769 -187.373044 -87.277776 0.000000 -0.000002 -0.000006 38.975334 1.444665 -1.378619 0.000000 0.000002 -3.005091 -5.000222 -7.998874 0.000146 0.664691 71.205924 0.737119 -57.167386 111.403643 41.134906 0.000001 0.000000 -0.000003 0.046837 6.724018 0.991503 -0.000000 0.000001 3.057151 -5.000199 7.999421 -0.000063 0.009274 173.035999 -3.440434 -179.999991 0.000005 -1.098001 168.302596 -3.638061 -0.820688 0.000001 -0.000004 0.157632 71.215384 6.772615 2.305834 25.456964 -7.355614 -0.000001 -7.523825 169.267018 -3.464713 -0.000004 -0.000005 -1.196440 -26.871846 2.606891 1.348117 0.000001 0.000001 -0.612221 71.751991 -6.740194 -2.349119 27.668997 7.235867 -3.233590 
49.141895 -9.103045 92.280502 -5.963329 2.761101 4.999084 -1.278513 -0.248237 0.006197 1.445708 -0.507842 0.000287 3.090822 -0.507716 0.006263 9.715949 -17.969948 -3.460220 6.350867 -3.076441 -1.714572 -16.387938 -21.224961 -18.555112 -148.379494 -187.293281 -87.183451 -0.000001 0.000000 -0.000006 38.557231 1.560173 -1.417598 0.000002 0.000001 -3.005101 -5.000223 -7.998872 0.000146 0.651300 71.224571 0.753996 -57.195232 111.414968 41.160250 -0.000000 0.000001 -0.000003 0.046851 6.720058 0.989193 0.000001 0.000001 3.057030 -5.000198 7.999420 -0.000063 0.026125 173.043020 -3.437225 -179.999991 0.000005 -1.098003 168.288922 -3.632984 -0.821539 0.000001 -0.000004 0.157812 71.221340 6.772583 2.305567 25.456967 -7.355614 -0.000000 -7.494746 169.277223 -3.467609 -0.000003 -0.000004 -1.197000 -26.871375 2.608204 1.348257 0.000001 0.000001 -0.612325 71.755112 -6.739973 -2.349695 27.670799 7.235557 -3.236402 
49.141697 -9.110595 92.282402 -5.980869 2.750978 4.989448 -1.275022 -0.247521 0.009571 1.452768 -0.506759 0.006780 3.097872 -0.506581 0.012739 9.728720 -17.891621 -3.452497 6.354034 -3.109975 -1.709311 -16.354032 -21.267233 -18.504559 -148.355247 -187.209256 -87.087815 -0.000001 -0.000001 -0.000006 38.115471 1.682119 -1.458814 0.000001 -0.000000 -3.005100 -5.000222 -7.998872 0.000146 0.641200 71.248005 0.767792 -57.245636 111.424851 41.209048 0.000003 -0.000000 -0.000004 0.046870 6.718010 0.987646 -0.000000 0.000000 3.056920 -5.000200 7.999419 -0.000063 0.043583 173.050998 -3.434111 -179.999991 0.000005 -1.098999 168.277788 -3.626967 -0.822041 0.000002 -0.000004 0.157994 71.225718 6.772594 2.305402 25.456964 -7.355615 -0.000000 -7.467271 169.287482 -3.469917 -0.000004 -0.000005 -1.197491 -26.871311 2.609714 1.348525 -0.000001 0.000001 -0.612426 71.757824 -6.739788 -2.350103 27.672703 7.235271 -3.239318 
49.148994 -9.119615 92.283501 -5.997383 2.740690 4.980770 -1.272184 -0.246806 0.012735 1.458487 -0.505502 0.013029 3.103601 -0.505267 0.018970 9.749933 -17.813671 -3.443351 6.350344 -3.142995 -1.704124 -16.319304 -21.306201 -18.452545 -148.325112 -187.120750 -86.990437 -0.000000 0.000003 -0.000005 37.646992 1.811373 -1.502390 0.000001 0.000000 -3.005099 -5.000224 -7.998873 0.000146 0.635036 71.277129 0.777908 -57.323326 111.432480 41.286417 0.000005 0.000001 -0.000003 0.046889 6.718199 0.986977 0.000002 0.000001 3.056811 -5.000198 7.999420 -0.000061 0.061665 173.059003 -3.431111 -179.999991 0.000005 -1.099001 168.269551 -3.620971 -0.822340 0.000001 -0.000003 0.158178 71.228580 6.772576 2.305225 25.456964 -7.355614 -0.000001 -7.441652 169.298765 -3.471655 -0.000004 -0.000005 -1.197919 -26.871749 2.611445 1.348944 -0.000000 0.000001 -0.612523 71.760119 -6.739614 -2.350438 27.674697 7.235004 -3.242341 
49.152397 -9.125546 92.284500 -6.013109 2.730020 4.972757 -1.269872 -0.246097 0.015778 1.463127 -0.504057 0.019226 3.108241 -0.503763 0.025147 9.777482 -17.735807 -3.433411 6.341925 -3.175199 -1.699359 -16.283639 -21.341763 -18.399104 -148.288543 -187.028311 -86.890900 -0.000000 0.000001 -0.000005 37.140663 1.951018 -1.549205 0.000001 0.000001 -3.005100 -5.000224 -7.998870 0.000146 0.631753 71.311239 0.785426 -57.430491 111.439044 41.395205 0.000004 0.000000 -0.000003 0.046902 6.720650 0.987306 0.000001 0.000001 3.056701 -5.000198 7.999419 -0.000063 0.080480 173.068005 -3.428151 -179.999991 0.000005 -1.099997 168.263910 -3.615026 -0.822474 0.000001 -0.000003 0.158361 71.229768 6.772604 2.304957 25.456965 -7.355614 -0.000002 -7.417687 169.310103 -3.472737 -0.000005 -0.000004 -1.198281 -26.872797 2.613464 1.349548 0.000000 0.000001 -0.612620 71.762195 -6.739445 -2.350684 27.676908 7.234771 -3.245537 
49.156200 -9.135515 92.286003 -6.028351 2.718805 4.965109 -1.267870 -0.245390 0.018811 1.467127 -0.502430 0.025562 3.112240 -0.502081 0.031462 9.808073 -17.657299 -3.423544 6.331795 -3.206492 -1.695309 -16.247374 -21.374090 -18.344715 -148.245677 -186.932674 -86.789998 -0.000001 -0.000001 -0.000005 36.591635 2.102597 -1.599161 -0.000001 -0.000000 -3.005101 -5.000220 -7.998873 0.000147 0.629866 71.348757 0.791780 -57.559083 111.447097 41.527089 0.000003 0.000000 -0.000003 0.046917 6.724970 0.988596 0.000002 0.000000 3.056591 -5.000202 7.999420 -0.000062 0.100075 173.077007 -3.425202 -179.999991 0.000005 -1.099997 168.260290 -3.608129 -0.822280 0.000001 -0.000003 0.158550 71.229652 6.772570 2.304760 25.456965 -7.355616 -0.000000 -7.394916 169.321482 -3.473278 -0.000004 -0.000004 -1.198589 -26.874653 2.615813 1.350362 -0.000000 0.000001 -0.612714 71.764053 -6.739278 -2.350744 27.679212 7.234547 -3.248896 
49.156799 -9.141823 92.290298 -6.043170 2.707125 4.957845 -1.266171 -0.244685 0.021820 1.470537 -0.500638 0.031994 3.115649 -0.500243 0.037874 9.841505 -17.578364 -3.413713 6.320006 -3.237101 -1.691883 -16.210558 -21.403555 -18.289510 -148.197510 -186.833882 -86.688016 -0.000001 0.000000 -0.000006 36.006715 2.264636 -1.650912 0.000001 0.000000 -3.005110 -5.000222 -7.998876 0.000146 0.629354 71.389356 0.796987 -57.709860 111.455403 41.682906 0.000004 0.000000 -0.000002 0.046933 6.730941 0.990702 0.000000 0.000001 3.056471 -5.000197 7.999419 -0.000062 0.120387 173.087020 -3.422278 -179.999991 0.000005 -1.099996 168.258582 -3.601245 -0.821962 0.000001 -0.000003 0.158737 71.228252 6.772547 2.304541 25.456969 -7.355616 -0.000001 -7.373195 169.334870 -3.473599 -0.000004 -0.000004 -1.198850 -26.877121 2.618452 1.351357 0.000000 0.000001 -0.612806 71.765802 -6.739083 -2.350908 27.681625 7.234336 -3.252396 
49.160801 -9.149743 92.291710 -6.057587 2.695040 4.951011 -1.264740 -0.243980 0.024797 1.473427 -0.498705 0.038480 3.118528 -0.498263 0.044338 9.877549 -17.499109 -3.403891 6.306602 -3.267240 -1.688983 -16.173212 -21.430355 -18.233557 -148.144850 -186.731949 -86.585181 0.000002 0.000002 -0.000005 35.392674 2.435603 -1.703220 0.000003 -0.000000 -3.005111 -5.000224 -7.998872 0.000146 0.630177 71.432652 0.801014 -57.879365 111.463906 41.858924 0.000003 -0.000000 -0.000004 0.046948 6.738308 0.993508 0.000001 0.000001 3.056352 -5.000199 7.999421 -0.000062 0.141362 173.098031 -3.419397 -179.999991 0.000005 -1.100995 168.258582 -3.593419 -0.821350 0.000001 -0.000003 0.158928 71.225704 6.772559 2.304298 25.456965 -7.355616 -0.000001 -7.352486 169.347273 -3.473358 -0.000004 -0.000004 -1.199070 -26.880191 2.621325 1.352503 0.000001 0.000001 -0.612896 71.767352 -6.738925 -2.350887 27.684138 7.234144 -3.256015 
49.167095 -9.156994 92.294792 -6.071640 2.682649 4.944673 -1.263540 -0.243272 0.027730 1.475836 -0.496646 0.044978 3.120937 -0.496163 0.050814 9.915963 -17.419347 -3.394107 6.291636 -3.297147 -1.686495 -16.135583 -21.454753 -18.177013 -148.088501 -186.626846 -86.482032 0.000001 0.000001 -0.000005 34.756056 2.613921 -1.754946 0.000001 0.000001 -3.005109 -5.000224 -7.998873 0.000146 0.632321 71.478244 0.803860 -58.062058 111.473059 42.049097 0.000003 -0.000000 -0.000004 0.046963 6.746848 0.996872 0.000000 0.000001 3.056231 -5.000198 7.999421 -0.000063 0.162941 173.109027 -3.416589 -179.999991 0.000005 -1.100995 168.260194 -3.585601 -0.820619 0.000001 -0.000003 0.159120 71.222180 6.772547 2.304109 25.456965 -7.355616 -0.000000 -7.332620 169.360701 -3.472876 -0.000004 -0.000004 -1.199258 -26.883664 2.624396 1.353773 0.000000 0.000001 -0.612985 71.768698 -6.738802 -2.350786 27.686757 7.233954 -3.259725 
